<?xml version="1.0" encoding="UTF-8" standalone="no"?>
<svg
   version="1.1"
   viewBox="0 0 24 24"
   data-testid="verificationBadge"
   id="svg6"
   sodipodi:docname="Twitter_Verified_Badge_Blue_FullPath.svg"
   inkscape:version="1.1.2 (b8e25be8, 2022-02-05)"
   xmlns:inkscape="http://www.inkscape.org/namespaces/inkscape"
   xmlns:sodipodi="http://sodipodi.sourceforge.net/DTD/sodipodi-0.dtd"
   xmlns="http://www.w3.org/2000/svg"
   xmlns:svg="http://www.w3.org/2000/svg">
  <defs
     id="defs10" />
  <sodipodi:namedview
     id="namedview8"
     pagecolor="#505050"
     bordercolor="#ffffff"
     borderopacity="1"
     inkscape:pageshadow="0"
     inkscape:pageopacity="0"
     inkscape:pagecheckerboard="1"
     showgrid="false"
     inkscape:zoom="36.375"
     inkscape:cx="7.5051546"
     inkscape:cy="12.329897"
     inkscape:window-width="2212"
     inkscape:window-height="1225"
     inkscape:window-x="214"
     inkscape:window-y="25"
     inkscape:window-maximized="0"
     inkscape:current-layer="svg6" />
  <g
     id="g4"
     transform="matrix(1.1707317,0,0,1.1707317,-2.0487805,-2.0487805)">
    <path
       d="m 22.25,12 c 0,-1.43 -0.88,-2.67 -2.19,-3.34 0.46,-1.39 0.2,-2.9 -0.81,-3.91 C 18.24,3.74 16.73,3.48 15.34,3.94 14.68,2.63 13.43,1.75 12,1.75 10.57,1.75 9.33,2.63 8.67,3.94 7.27,3.48 5.76,3.74 4.75,4.75 3.74,5.76 3.49,7.27 3.95,8.66 2.64,9.33 1.75,10.57 1.75,12 c 0,1.43 0.89,2.67 2.2,3.34 -0.46,1.39 -0.21,2.9 0.8,3.91 1.01,1.01 2.52,1.26 3.91,0.81 0.67,1.31 1.91,2.19 3.34,2.19 1.43,0 2.68,-0.88 3.34,-2.19 1.39,0.45 2.9,0.2 3.91,-0.81 1.01,-1.01 1.27,-2.52 0.81,-3.91 1.31,-0.67 2.19,-1.91 2.19,-3.34 z m -11.71,4.2 -3.74,-3.74 1.41,-1.42 2.26,2.26 4.8,-5.23 1.47,1.36 z"
       fill="#1d9bf0"
       id="path2" />
  </g>
</svg>
